<?xml version="1.0" encoding="utf-8"?>
<!-- Generator: Adobe Illustrator 21.0.0, SVG Export Plug-In . SVG Version: 6.00 Build 0)  -->
<svg version="1.1" id="Layer_1" xmlns="http://www.w3.org/2000/svg" xmlns:xlink="http://www.w3.org/1999/xlink" x="0px" y="0px"
	 viewBox="0 0 300 300" enable-background="new 0 0 300 300" xml:space="preserve">
<g>
	<path fill="#999999" d="M160.093,136.478v-0.42c-0.081,0.145-0.178,0.307-0.274,0.42H160.093z"/>
	<path fill="#999999" d="M270.105,7.908H28.714c-11.571,0-20.931,9.165-20.931,20.447v244.198c0,11.313,9.36,20.447,20.931,20.447
		h241.391c11.571,0,20.947-9.134,20.947-20.447V28.355C291.052,17.073,281.676,7.908,270.105,7.908z M93.653,246.556H50.855V117.839
		h42.799L93.653,246.556L93.653,246.556z M72.253,100.264h-0.289c-14.347,0-23.643-9.909-23.643-22.255
		c0-12.619,9.586-22.253,24.206-22.253c14.638,0,23.643,9.634,23.934,22.253C96.461,90.356,87.165,100.264,72.253,100.264z
		 M247.915,246.556h-42.781v-68.861c0-17.3-6.182-29.129-21.675-29.129c-11.812,0-18.849,7.988-21.964,15.669
		c-1.114,2.76-1.403,6.569-1.403,10.442v71.878h-42.766c0,0,0.532-116.662,0-128.717h42.766v18.219
		c5.696-8.778,15.863-21.237,38.57-21.237c28.144,0,49.252,18.381,49.252,57.934v73.802L247.915,246.556L247.915,246.556z"/>
</g>
</svg>
